<svg xmlns="http://www.w3.org/2000/svg" xmlns:xlink="http://www.w3.org/1999/xlink" width="2000" zoomAndPan="magnify" viewBox="0 0 1500 374.999991" height="500" preserveAspectRatio="xMidYMid meet" version="1.0"><defs><g/><clipPath id="424a802dc6"><path d="M 671.441406 233.613281 L 782.441406 233.613281 L 782.441406 344.613281 L 671.441406 344.613281 Z M 671.441406 233.613281 " clip-rule="nonzero"/></clipPath><clipPath id="e1482dacbe"><rect x="0" width="638" y="0" height="147"/></clipPath><clipPath id="b8ea0e2458"><rect x="0" width="1352" y="0" height="304"/></clipPath></defs><rect x="-150" width="1800" fill="#0e2a23" y="-37.499999" height="449.999989" fill-opacity="1"/><g clip-path="url(#424a802dc6)"><path fill="#ff6b5b" d="M 770.148438 233.613281 L 683.78125 233.613281 C 676.960938 233.613281 671.503906 239.136719 671.503906 245.953125 L 671.441406 332.324219 C 671.441406 339.140625 676.960938 344.660156 683.78125 344.660156 L 770.148438 344.660156 C 776.964844 344.660156 782.488281 339.140625 782.488281 332.324219 L 782.488281 245.953125 C 782.488281 239.136719 776.964844 233.613281 770.148438 233.613281 Z M 763.980469 301.476562 L 739.304688 301.476562 L 739.304688 326.152344 L 714.625 326.152344 L 714.625 301.476562 L 689.949219 301.476562 L 689.949219 276.800781 L 714.625 276.800781 L 714.625 252.121094 L 739.304688 252.121094 L 739.304688 276.800781 L 763.980469 276.800781 Z M 763.980469 301.476562 " fill-opacity="1" fill-rule="nonzero"/></g><path stroke-linecap="butt" transform="matrix(0.75, 0, 0, 0.75, 144.642856, 289.449591)" fill="none" stroke-linejoin="miter" d="M 0.00223406 1.999504 L 648.002277 1.999504 " stroke="#ffffff" stroke-width="4" stroke-opacity="1" stroke-miterlimit="4"/><g transform="matrix(1, 0, 0, 1, 797, 215)"><g clip-path="url(#e1482dacbe)"><g fill="#ffffff" fill-opacity="1"><g transform="translate(0.844458, 115.274361)"><g><path d="M 12.59375 0 L 12.59375 -88.90625 L 40.15625 -88.90625 C 62.019531 -88.90625 75.21875 -80.226562 79.75 -62.875 C 81.164062 -57.382812 81.875 -51.222656 81.875 -44.390625 L 81.875 -42.046875 C 81.875 -28.660156 78.226562 -18.328125 70.9375 -11.046875 C 63.582031 -3.679688 53.171875 0 39.703125 0 Z M 22.484375 -8.984375 L 39.703125 -8.984375 C 50.035156 -8.984375 57.988281 -12.015625 63.5625 -18.078125 C 68.9375 -23.910156 71.625 -31.898438 71.625 -42.046875 L 71.625 -44.390625 C 71.394531 -56.554688 68.878906 -65.445312 64.078125 -71.0625 C 59.046875 -76.9375 51 -79.875 39.9375 -79.875 L 22.484375 -79.875 Z M 22.484375 -8.984375 "/></g></g></g><g fill="#ffffff" fill-opacity="1"><g transform="translate(104.357702, 115.274361)"><g><path d="M 12.59375 -88.90625 L 63.328125 -88.90625 L 62.8125 -79.75 L 22.484375 -79.75 L 22.484375 -50 L 58.59375 -50 L 58.59375 -40.96875 L 22.484375 -40.96875 L 22.484375 -9.09375 L 63.90625 -9.09375 L 64.421875 0 L 12.59375 0 Z M 12.59375 -88.90625 "/></g></g></g><g fill="#ffffff" fill-opacity="1"><g transform="translate(188.132968, 115.274361)"><g><path d="M 9.4375 -88.90625 L 24.140625 -88.90625 L 61.5 -23.28125 L 68.484375 -9.328125 L 68.484375 -88.90625 L 78.375 -88.90625 L 78.375 0 L 63.84375 0 L 26.203125 -65.96875 L 19.34375 -79.53125 L 19.34375 0 L 9.4375 0 Z M 9.4375 -88.90625 "/></g></g></g><g fill="#ffffff" fill-opacity="1"><g transform="translate(291.360134, 115.274361)"><g><path d="M 39.015625 0 L 39.015625 -79.75 L 9.71875 -79.75 L 9.71875 -88.90625 L 77.8125 -88.90625 L 77.8125 -79.75 L 48.96875 -79.75 L 48.96875 0 Z M 39.015625 0 "/></g></g></g><g fill="#ffffff" fill-opacity="1"><g transform="translate(394.758983, 115.274361)"><g><path d="M 37.59375 -88.90625 L 50.296875 -88.90625 L 85.359375 0 L 74.03125 0 L 64.828125 -24.65625 L 23 -24.65625 L 13.90625 0 L 2.515625 0 Z M 61.5 -32.84375 L 52.40625 -56.75 C 51.113281 -60.226562 50.023438 -63.242188 49.140625 -65.796875 L 46.625 -73.46875 C 45.820312 -76.019531 44.925781 -78.722656 43.9375 -81.578125 C 43.0625 -79.066406 42.222656 -76.53125 41.421875 -73.96875 C 41.421875 -73.96875 40.546875 -71.265625 38.796875 -65.859375 C 38.796875 -65.859375 34.65625 -54.851562 26.375 -32.84375 Z M 61.5 -32.84375 "/></g></g></g><g fill="#ffffff" fill-opacity="1"><g transform="translate(498.043395, 115.274361)"><g><path d="M 9.609375 0 L 9.609375 -88.90625 L 19.515625 -88.90625 L 19.515625 -9.265625 L 60.296875 -9.265625 L 59.90625 0 Z M 9.609375 0 "/></g></g></g><g fill="#ffffff" fill-opacity="1"><g transform="translate(581.887735, 115.274361)"><g/></g></g></g></g><g transform="matrix(1, 0, 0, 1, 76, 0)"><g clip-path="url(#b8ea0e2458)"><g fill="#ffffff" fill-opacity="1"><g transform="translate(0.787539, 205.811504)"><g><path d="M 90.90625 3.703125 C 72.195312 3.703125 56.695312 -0.0820312 44.40625 -7.65625 C 32.113281 -15.226562 22.988281 -25.390625 17.03125 -38.140625 C 11.082031 -50.898438 8.109375 -65.085938 8.109375 -80.703125 C 8.109375 -98.328125 11.082031 -113.554688 17.03125 -126.390625 C 22.988281 -139.222656 32.113281 -149.117188 44.40625 -156.078125 C 56.695312 -163.035156 72.195312 -166.515625 90.90625 -166.515625 C 109.769531 -166.515625 125.304688 -163.035156 137.515625 -156.078125 C 149.734375 -149.117188 158.816406 -139.222656 164.765625 -126.390625 C 170.722656 -113.554688 173.703125 -98.328125 173.703125 -80.703125 C 173.703125 -65.085938 170.722656 -50.898438 164.765625 -38.140625 C 158.816406 -25.390625 149.734375 -15.226562 137.515625 -7.65625 C 125.304688 -0.0820312 109.769531 3.703125 90.90625 3.703125 Z M 90.90625 -0.234375 C 99.5625 -0.234375 106.828125 -2.359375 112.703125 -6.609375 C 118.578125 -10.859375 123.253906 -16.734375 126.734375 -24.234375 C 130.210938 -31.734375 132.722656 -40.3125 134.265625 -49.96875 C 135.816406 -59.632812 136.59375 -69.878906 136.59375 -80.703125 C 136.59375 -91.367188 135.816406 -101.570312 134.265625 -111.3125 C 132.722656 -121.050781 130.210938 -129.785156 126.734375 -137.515625 C 123.253906 -145.242188 118.578125 -151.347656 112.703125 -155.828125 C 106.828125 -160.316406 99.5625 -162.5625 90.90625 -162.5625 C 81.78125 -162.5625 74.242188 -160.316406 68.296875 -155.828125 C 62.347656 -151.347656 57.707031 -145.242188 54.375 -137.515625 C 51.050781 -129.785156 48.691406 -121.050781 47.296875 -111.3125 C 45.910156 -101.570312 45.21875 -91.367188 45.21875 -80.703125 C 45.21875 -69.878906 46.066406 -59.632812 47.765625 -49.96875 C 49.472656 -40.3125 52.101562 -31.734375 55.65625 -24.234375 C 59.207031 -16.734375 63.882812 -10.859375 69.6875 -6.609375 C 75.488281 -2.359375 82.5625 -0.234375 90.90625 -0.234375 Z M 90.90625 -0.234375 "/></g></g></g><g fill="#ffffff" fill-opacity="1"><g transform="translate(187.233873, 205.811504)"><g><path d="M 48.703125 0 L 11.59375 0 L 11.59375 -162.796875 L 86.734375 -162.796875 C 100.179688 -162.796875 111.078125 -160.515625 119.421875 -155.953125 C 127.773438 -151.390625 133.921875 -145.550781 137.859375 -138.4375 C 141.804688 -131.332031 143.78125 -123.914062 143.78125 -116.1875 C 143.78125 -107.6875 141.804688 -100.535156 137.859375 -94.734375 C 133.921875 -88.929688 128.820312 -84.210938 122.5625 -80.578125 C 116.300781 -76.953125 109.726562 -74.328125 102.84375 -72.703125 C 95.96875 -71.078125 89.59375 -70.1875 83.71875 -70.03125 L 48.703125 -70.03125 Z M 48.703125 -158.859375 L 48.703125 -74.203125 L 67.71875 -74.203125 C 76.84375 -74.203125 84.300781 -76.328125 90.09375 -80.578125 C 95.894531 -84.835938 100.144531 -90.210938 102.84375 -96.703125 C 105.550781 -103.191406 106.90625 -109.765625 106.90625 -116.421875 C 106.90625 -122.910156 105.59375 -129.398438 102.96875 -135.890625 C 100.34375 -142.390625 96.207031 -147.84375 90.5625 -152.25 C 84.914062 -156.65625 77.457031 -158.859375 68.1875 -158.859375 Z M 48.703125 -158.859375 "/></g></g></g><g fill="#ffffff" fill-opacity="1"><g transform="translate(343.301533, 205.811504)"><g><path d="M 48.703125 -89.515625 L 48.703125 -4.171875 C 63.546875 -4.171875 76.300781 -4.671875 86.96875 -5.671875 C 97.632812 -6.679688 107.253906 -8.578125 115.828125 -11.359375 C 124.410156 -14.140625 132.957031 -18.082031 141.46875 -23.1875 L 141.46875 0 L 11.59375 0 L 11.59375 -162.796875 L 137.984375 -162.796875 L 137.984375 -139.609375 C 130.253906 -144.242188 122.40625 -147.953125 114.4375 -150.734375 C 106.476562 -153.515625 97.28125 -155.5625 86.84375 -156.875 C 76.40625 -158.195312 63.691406 -158.859375 48.703125 -158.859375 L 48.703125 -93.6875 L 123.609375 -93.6875 L 123.609375 -89.515625 Z M 48.703125 -89.515625 "/></g></g></g><g fill="#ffffff" fill-opacity="1"><g transform="translate(500.528641, 205.811504)"><g><path d="M 27.359375 0 L 10.4375 0 C 13.21875 -9.425781 14.992188 -18.390625 15.765625 -26.890625 C 16.535156 -35.398438 16.921875 -44.601562 16.921875 -54.5 L 16.921875 -162.796875 L 41.96875 -162.796875 L 145.875 -16 L 145.875 -111.546875 C 145.875 -119.429688 145.367188 -128.050781 144.359375 -137.40625 C 143.359375 -146.757812 141.773438 -155.222656 139.609375 -162.796875 L 156.3125 -162.796875 C 154.144531 -155.222656 152.554688 -146.71875 151.546875 -137.28125 C 150.546875 -127.851562 150.046875 -119.273438 150.046875 -111.546875 L 150.046875 0 L 119.65625 0 L 20.640625 -140.078125 L 20.875 -54.5 C 20.875 -46 21.257812 -37.144531 22.03125 -27.9375 C 22.800781 -18.738281 24.578125 -9.425781 27.359375 0 Z M 27.359375 0 "/></g></g></g><g fill="#ffffff" fill-opacity="1"><g transform="translate(668.886937, 205.811504)"><g/></g></g><g fill="#ffffff" fill-opacity="1"><g transform="translate(726.861653, 205.811504)"><g><path d="M 27.359375 0 L 10.4375 0 C 13.21875 -9.425781 14.992188 -18.390625 15.765625 -26.890625 C 16.535156 -35.398438 16.921875 -44.601562 16.921875 -54.5 L 16.921875 -162.796875 L 41.96875 -162.796875 L 145.875 -16 L 145.875 -111.546875 C 145.875 -119.429688 145.367188 -128.050781 144.359375 -137.40625 C 143.359375 -146.757812 141.773438 -155.222656 139.609375 -162.796875 L 156.3125 -162.796875 C 154.144531 -155.222656 152.554688 -146.71875 151.546875 -137.28125 C 150.546875 -127.851562 150.046875 -119.273438 150.046875 -111.546875 L 150.046875 0 L 119.65625 0 L 20.640625 -140.078125 L 20.875 -54.5 C 20.875 -46 21.257812 -37.144531 22.03125 -27.9375 C 22.800781 -18.738281 24.578125 -9.425781 27.359375 0 Z M 27.359375 0 "/></g></g></g><g fill="#ffffff" fill-opacity="1"><g transform="translate(895.219895, 205.811504)"><g><path d="M 90.90625 3.703125 C 72.195312 3.703125 56.695312 -0.0820312 44.40625 -7.65625 C 32.113281 -15.226562 22.988281 -25.390625 17.03125 -38.140625 C 11.082031 -50.898438 8.109375 -65.085938 8.109375 -80.703125 C 8.109375 -98.328125 11.082031 -113.554688 17.03125 -126.390625 C 22.988281 -139.222656 32.113281 -149.117188 44.40625 -156.078125 C 56.695312 -163.035156 72.195312 -166.515625 90.90625 -166.515625 C 109.769531 -166.515625 125.304688 -163.035156 137.515625 -156.078125 C 149.734375 -149.117188 158.816406 -139.222656 164.765625 -126.390625 C 170.722656 -113.554688 173.703125 -98.328125 173.703125 -80.703125 C 173.703125 -65.085938 170.722656 -50.898438 164.765625 -38.140625 C 158.816406 -25.390625 149.734375 -15.226562 137.515625 -7.65625 C 125.304688 -0.0820312 109.769531 3.703125 90.90625 3.703125 Z M 90.90625 -0.234375 C 99.5625 -0.234375 106.828125 -2.359375 112.703125 -6.609375 C 118.578125 -10.859375 123.253906 -16.734375 126.734375 -24.234375 C 130.210938 -31.734375 132.722656 -40.3125 134.265625 -49.96875 C 135.816406 -59.632812 136.59375 -69.878906 136.59375 -80.703125 C 136.59375 -91.367188 135.816406 -101.570312 134.265625 -111.3125 C 132.722656 -121.050781 130.210938 -129.785156 126.734375 -137.515625 C 123.253906 -145.242188 118.578125 -151.347656 112.703125 -155.828125 C 106.828125 -160.316406 99.5625 -162.5625 90.90625 -162.5625 C 81.78125 -162.5625 74.242188 -160.316406 68.296875 -155.828125 C 62.347656 -151.347656 57.707031 -145.242188 54.375 -137.515625 C 51.050781 -129.785156 48.691406 -121.050781 47.296875 -111.3125 C 45.910156 -101.570312 45.21875 -91.367188 45.21875 -80.703125 C 45.21875 -69.878906 46.066406 -59.632812 47.765625 -49.96875 C 49.472656 -40.3125 52.101562 -31.734375 55.65625 -24.234375 C 59.207031 -16.734375 63.882812 -10.859375 69.6875 -6.609375 C 75.488281 -2.359375 82.5625 -0.234375 90.90625 -0.234375 Z M 90.90625 -0.234375 "/></g></g></g><g fill="#ffffff" fill-opacity="1"><g transform="translate(1081.666212, 205.811504)"><g><path d="M 235.390625 -162.796875 L 258.578125 -162.796875 L 202.6875 0 L 165.578125 0 L 132.65625 -95.78125 L 99.71875 0 L 62.609375 0 L 6.71875 -162.796875 L 43.828125 -162.796875 L 97.625 -6.03125 L 130.5625 -101.8125 L 109.6875 -162.796875 L 146.796875 -162.796875 L 200.59375 -6.03125 L 226.796875 -82.09375 C 232.210938 -97.707031 235.460938 -111.851562 236.546875 -124.53125 C 237.628906 -137.207031 237.242188 -149.960938 235.390625 -162.796875 Z M 235.390625 -162.796875 "/></g></g></g></g></g></svg>
